REM GENRE Potatofunk
REM DATE 1988
REM COMPILATION TRUE
PERFORMER "Potato Masters"
SONGWRITER "potato songwriter"
TITLE "Who Potato? That Potato!"
FILE "potato masters - who potato that potato.mp3" MP3
  TRACK 01 AUDIO
    TITLE "The Potato Song"
    PERFORMER "Potato Masters"
    INDEX 01 00:00:00
  TRACK 02 AUDIO
    TITLE "The Even Better Potato Song"
    PERFORMER "Potato Masters"
    INDEX 01 06:42:00
  TRACK 03 AUDIO
    TITLE "The Potato Vacation"
    PERFORMER "Potato Masters"
    SONGWRITER "Not Potato Masters"
    INDEX 01 10:54:00
  TRACK 04 AUDIO
    TITLE "I Dream of Potato"
    PERFORMER "Bob"
    INDEX 01 17:04:00
  TRACK 05 AUDIO
    TITLE "All Potatoes Shall be Mine"
    PERFORMER "Potato Masters"
    INDEX 01 25:44:00